<?xml version="1.0" standalone="no"?>
<!DOCTYPE svg PUBLIC "-//W3C//DTD SVG 20010904//EN"
 "http://www.w3.org/TR/2001/REC-SVG-20010904/DTD/svg10.dtd">
<svg version="1.0" xmlns="http://www.w3.org/2000/svg"
 width="512.000000pt" height="512.000000pt" viewBox="0 0 512.000000 512.000000"
 preserveAspectRatio="xMidYMid meet">
<metadata>
Created by potrace 1.16, written by Peter Selinger 2001-2019
</metadata>
<g transform="translate(0.000000,512.000000) scale(0.100000,-0.100000)"
fill="#000000" stroke="none">
<path d="M59 4916 c-41 -23 -59 -60 -59 -117 0 -81 21 -95 343 -234 158 -69
279 -126 282 -135 2 -8 140 -674 305 -1480 166 -806 307 -1480 313 -1498 16
-47 71 -109 121 -135 l41 -22 1573 0 1574 0 34 37 c28 32 34 45 34 84 0 25 -7
58 -16 73 -35 60 75 56 -1588 61 l-1530 5 -32 155 c-18 85 -33 163 -34 173 0
16 81 17 1569 17 1710 0 1610 -3 1688 56 73 55 71 48 264 984 115 560 179 893
179 931 0 33 -6 74 -14 93 -19 46 -72 104 -120 129 l-41 22 -1994 5 -1994 5
-43 207 c-24 114 -49 219 -57 235 -38 72 -79 97 -380 228 -309 135 -364 151
-418 121z m4801 -1061 c0 -8 -341 -1660 -346 -1677 -5 -17 -89 -18 -1579 -18
l-1573 0 -10 48 c-6 26 -83 400 -172 832 -88 432 -163 793 -166 803 -5 16 91
17 1920 17 1059 0 1926 -2 1926 -5z"/>
<path d="M1984 3456 c-50 -22 -74 -61 -74 -120 0 -31 6 -61 16 -74 38 -54 -4
-52 1017 -52 l944 0 28 22 c29 23 55 74 55 109 0 43 -32 91 -74 110 -39 18
-87 19 -961 18 -748 0 -926 -2 -951 -13z"/>
<path d="M2045 2777 c-61 -61 -53 -150 18 -201 28 -21 35 -21 875 -21 801 0
848 1 874 18 68 47 75 148 14 204 l-36 33 -856 0 -856 0 -33 -33z"/>
<path d="M2070 1090 c-284 -53 -445 -333 -349 -604 40 -116 142 -222 256 -267
49 -20 76 -24 173 -24 112 0 117 1 190 36 121 59 201 152 240 278 60 193 -16
404 -184 513 -93 60 -224 87 -326 68z m160 -276 c58 -29 110 -111 110 -174 0
-98 -93 -190 -191 -190 -89 0 -167 62 -189 151 -38 150 131 284 270 213z"/>
<path d="M3641 1089 c-128 -22 -263 -125 -321 -243 -85 -174 -56 -373 75 -514
95 -103 208 -147 360 -140 82 3 101 8 166 40 41 20 94 56 118 79 211 204 180
553 -63 711 -96 62 -222 87 -335 67z m174 -276 c32 -18 73 -65 89 -105 20 -47
20 -89 1 -136 -74 -175 -317 -156 -366 28 -39 150 139 287 276 213z"/>
</g>
</svg>
